<svg width="18" height="18" viewBox="0 0 18 18" fill="none" xmlns="http://www.w3.org/2000/svg">
<path d="M17.0683 1.76032L10.1933 16.7603C10.1358 16.886 10.0383 16.989 9.91594 17.0533C9.79363 17.1176 9.65345 17.1396 9.51732 17.1158C9.3812 17.092 9.25681 17.0237 9.16361 16.9217C9.0704 16.8196 9.01364 16.6896 9.0022 16.5519L8.42095 9.57894L1.44801 8.99769C1.3103 8.98625 1.18025 8.92949 1.07822 8.83629C0.976195 8.74308 0.907932 8.61869 0.884112 8.48257C0.860291 8.34645 0.882257 8.20627 0.946573 8.08395C1.01089 7.96164 1.11393 7.86409 1.23958 7.80657L16.2396 0.931565C16.3555 0.878422 16.485 0.862033 16.6105 0.884598C16.7361 0.907163 16.8517 0.967602 16.9419 1.0578C17.0321 1.148 17.0925 1.26363 17.1151 1.38918C17.1377 1.51472 17.1213 1.64417 17.0681 1.76013L17.0683 1.76032Z" fill="#080809"/>
</svg>
